<?xml version="1.0" encoding="utf-8"?>
<!-- Generator: Adobe Illustrator 19.2.1, SVG Export Plug-In . SVG Version: 6.00 Build 0)  -->
<svg version="1.1" id="Layer_1" xmlns="http://www.w3.org/2000/svg" xmlns:xlink="http://www.w3.org/1999/xlink" x="0px" y="0px"
	 viewBox="0 0 566.9 170.1" style="enable-background:new 0 0 566.9 170.1;" xml:space="preserve">
<style type="text/css">
	.st0{fill:#114E64;}
	.st1{fill:#1DB3AC;}
</style>
<g>
	<path class="st0" d="M81.7,98H66.3c-11,0-16.4-5.7-16.2-16.9H27.5C15.8,81.2,10,73.8,10,59.3c0-9.7,2.5-17,7.5-22.1
		c4-4.1,8.9-6.3,14.6-6.3c7.2,0,13.8,3.8,16.9,8.7h0.3v-7.5h10.6v48.4c0,5.1,2.1,7.7,6.4,7.7h15.5V98z M49.4,71.7L49.2,49
		c-3.7-6.3-8.4-9.5-14.4-9.5c-3.8,0-7.1,1.7-9.5,5.1c-2.9,3.5-4.3,8.7-4.3,15.3c0,3.5,0.5,6,1.2,7.7c1.2,2.8,3.7,4.1,7.4,4.1H49.4z
		 M32.7,18.5H21.3v-12h11.3V18.5z M51.4,18.5H40v-12h11.3V18.5z M100,98H79v-9.8h21V98z M118.2,98h-21v-9.8h21V98z M136.5,98h-21
		v-9.8h21V98z M213.1,88.2V98h-15.9c-7.5,0-15.2-1.7-23.1-5.2c-7.8,3.5-15.5,5.2-23.1,5.2h-17.5v-9.8h17.9c6.3,0,10.7-0.3,13-0.8
		c-5.7-3.8-10-8.7-12.9-14.9c-2.5-5.1-3.7-10-3.7-14.9c0-8.4,2.6-15,7.8-19.9c4.9-4.4,11-6.7,18.2-6.7c7.4,0,13.5,2.3,18.4,6.7
		c5.4,4.9,8,11.5,8,19.9c0,4.9-1.2,9.8-3.7,14.9c-2.9,6.1-7.2,11-12.9,14.9c2.3,0.5,6.7,0.8,13,0.8H213.1z M189.2,57.7
		c0-5.2-1.2-9.5-3.8-13c-2.9-3.8-6.7-5.8-11.5-5.8c-4.8,0-8.4,2-11.3,5.8c-2.6,3.5-3.8,7.8-3.8,13c0,6.7,2.1,12.7,6.6,17.9
		c3.5,4.4,6.4,6.6,8.7,6.6c2.5,0,5.4-2.1,8.9-6.6C187,70.4,189.2,64.5,189.2,57.7z M179.5,19.4h-11.3V7.6h11.3V19.4z M231.5,98h-21
		v-9.8h21V98z M249.7,98h-21v-9.8h21V98z M268,98h-21v-9.8h21V98z M330.7,98H317c-4.6,0-8.4-2-11.6-5.8c-1.8-2.1-3.1-4.3-3.8-6.6
		c-2.9,7.5-10.7,12-19.2,12.4h-20.1v-9.8h17c2.9,0,5.5-0.8,8-2.3c3.2-2.1,4.8-4.9,4.8-8.4c0.3,2.5,0.3-9.4-0.2-35.4h10.6
		c0,9.8,0.2,19.5,0.3,29.1c0.2,5.4,1.7,9.7,4.8,12.9c2.6,2.8,5.5,4.1,8.4,4.1h14.7v2.6v4.8V98z M294.8,120.7h-11.5v-11.8h11.5V120.7
		z M313.5,120.7h-11.3v-11.8h11.3V120.7z M348.2,98h-21v-9.8h21V98z M366.4,98h-21v-9.8h21V98z M384.6,98h-21v-9.8h21V98z M487.2,98
		H381.7v-9.8h17l-0.3-81.1H409l-1.2,68.4c6-13.2,14.3-22.7,24.8-28.5c7.7-4.1,14.9-5.8,21.8-5.1c13,1.4,22.2,8.1,27.4,20.2
		C485.3,70.6,487.2,82.6,487.2,98z M476.6,88.1c-0.2-6.9-1.1-12.7-2.8-17.8c-3.5-12.1-10.1-18.4-19.6-19
		c-18.7-1.2-33.6,11-44.8,36.8H476.6z M452.2,29.8h-11.3V18h11.3V29.8z"/>
	<path class="st1" d="M556.9,83.8c0,13.3-3.7,24.2-10.9,33c-7.2,8.7-16.9,13.6-28.8,14.7l-4.6-9.7c7.7,0,14.4-2.1,20.1-6.6
		c5.4-4.3,9.4-10,11.6-17.2h-13.8c-7.1,0-12.7-2.6-17.2-8c-4.4-5.4-6.3-12-6.3-19.5c0.2-10,3.5-17.5,9.5-22.7
		c4.8-4.1,10.3-6.1,16.4-6.1c15.9,0,23.9,8.1,23.9,24.2V83.8z M546.4,88.2L546,62.6c-0.2-9-4.1-13.6-12-13.6
		c-4.1,0-7.5,1.7-10.4,5.2c-3.2,3.8-5.1,9-5.1,15.6c0,10.3,5.7,18.4,14.7,18.4H546.4z"/>
	<path class="st1" d="M11.1,161.4c0-1.1,0.8-1.9,1.8-1.9c1.1,0,2,0.8,2,1.9c0,1-0.8,1.9-2,1.9C11.9,163.3,11.1,162.4,11.1,161.4"/>
	<path class="st1" d="M26,158.8c-2.9-2.9-4.8-7-4.8-11.4c0-4.4,1.8-8.5,4.8-11.4c2.9-2.9,6.9-4.7,11.4-4.7c4.6,0,8.6,1.8,11.6,4.9
		l-2.6,1.5c-2.4-2.2-5.5-3.5-9-3.5c-3.6,0-6.9,1.5-9.3,3.8c-2.4,2.4-4,5.7-4,9.3c0,3.6,1.5,7,4,9.3c2.4,2.4,5.7,3.8,9.3,3.8
		c3.5,0,6.6-1.3,9-3.5l2.6,1.5c-3,3.1-7,4.9-11.6,4.9C32.9,163.6,29,161.7,26,158.8"/>
	<path class="st1" d="M57.6,158.8c-2.9-2.9-4.8-7-4.8-11.4c0-4.5,1.8-8.6,4.8-11.5c2.9-2.9,7-4.7,11.4-4.7c4.5,0,8.6,1.8,11.5,4.7
		c2.9,2.9,4.7,7,4.7,11.5c0,4.4-1.8,8.4-4.7,11.4c-2.9,2.9-7,4.8-11.5,4.8C64.5,163.6,60.5,161.7,57.6,158.8 M59.6,137.9
		c-2.4,2.4-4,5.9-4,9.5s1.5,7,4,9.4c2.4,2.4,5.7,4,9.3,4c3.6,0,7.1-1.5,9.4-4c2.4-2.4,3.9-5.7,3.9-9.4s-1.5-7.1-3.9-9.5
		c-2.4-2.4-5.8-3.9-9.4-3.9C65.3,134,62,135.5,59.6,137.9"/>
	<path class="st1" d="M130.5,163.2v-20.3c0-2.4-1-4.5-2.5-6.1c-1.5-1.5-3.6-2.5-5.9-2.5c-2.4,0-4.5,1-6,2.5c-1.5,1.5-2.5,3.7-2.5,6
		v20.5h-2.9v-20.5c0-2.3-1-4.5-2.5-6c-1.5-1.5-3.7-2.5-6-2.5c-2.3,0-4.4,1-5.9,2.6c-1.5,1.6-2.5,3.8-2.5,6.2v20.2h-2.9v-31h2.9v4.1
		c2-3.8,5.8-5,8.4-5c3.8,0,7.1,1.9,9.9,5.7c2.8-3.8,6.1-5.7,10-5.7c3.1,0,5.9,1.3,8,3.3c2,2.1,3.3,5,3.3,8.2v20.3H130.5z"/>
</g>
</svg>
